<svg xmlns="http://www.w3.org/2000/svg" width="16" height="16" viewBox="0 0 16 16"><rect width="100%" height="100%" fill="#DDDDDD"/><path fill="#999999" d="M4.03 8.795h.39v.28h-1.2v-.28h.44v-1.26q0-.08.01-.16l-.31.26q-.03.03-.06.03-.02.01-.05 0-.02 0-.04-.01l-.03-.03-.11-.16.66-.56h.3v1.89Zm2.01-1.89-.65.79-.07.09q.06-.03.13-.05.08-.01.16-.01.12 0 .24.04t.21.12q.08.08.14.2.05.12.05.29 0 .15-.05.28-.06.13-.16.23t-.24.16q-.14.05-.31.05-.18 0-.32-.05-.13-.06-.23-.16t-.15-.24q-.05-.14-.05-.31 0-.15.06-.31t.19-.34l.52-.69q.03-.04.08-.06.05-.03.12-.03h.33Zm-.56 1.89q.09 0 .16-.03.08-.03.13-.08.05-.06.08-.13t.03-.16q0-.09-.03-.17-.03-.07-.08-.12-.05-.05-.12-.08-.08-.03-.17-.03-.08 0-.16.03-.07.03-.12.09-.05.05-.08.12-.03.07-.03.16t.03.16q.02.08.07.13t.12.08q.07.03.17.03Zm3.18-.22-.2.2-.51-.51-.51.51-.2-.19.52-.52-.49-.49.19-.19.49.49.49-.49.2.2-.49.48.51.51Zm2.05.22h.39v.28H9.9v-.28h.44v-1.26q0-.08.01-.16l-.32.26q-.02.03-.05.03-.03.01-.05 0-.02 0-.04-.01l-.03-.03-.11-.16.66-.56h.3v1.89Zm2.01-1.89-.65.79-.07.09q.06-.03.13-.05.08-.01.16-.01.12 0 .24.04t.2.12q.09.08.15.2.05.12.05.29 0 .15-.06.28-.05.13-.15.23-.1.1-.24.16-.15.05-.32.05t-.31-.05q-.14-.06-.23-.16-.1-.1-.15-.24-.05-.14-.05-.31 0-.15.06-.31t.19-.34l.52-.69q.02-.04.08-.06.05-.03.12-.03h.33Zm-.56 1.89q.08 0 .16-.03.07-.03.13-.08.05-.06.08-.13t.03-.16q0-.09-.03-.17-.03-.07-.08-.12-.05-.05-.13-.08-.07-.03-.16-.03t-.16.03q-.07.03-.12.09-.05.05-.08.12-.03.07-.03.16t.03.16q.02.08.07.13t.12.08q.07.03.17.03Z"/></svg>